<svg xmlns="http://www.w3.org/2000/svg" xmlns:xlink="http://www.w3.org/1999/xlink" width="960" height="537.62"><rect width="960" height="537.62" rx="5" ry="5" class="a"/><svg y="0%" x="0%"><circle cx="20" cy="20" r="6" fill="#ff5f58"/><circle cx="40" cy="20" r="6" fill="#ffbd2e"/><circle cx="60" cy="20" r="6" fill="#18c132"/></svg><svg height="477.62" viewBox="0 0 92 47.762" width="920" x="15" xmlns="http://www.w3.org/2000/svg" xmlns:xlink="http://www.w3.org/1999/xlink" y="50"><style>@keyframes h{0%{transform:translateX(0)}.3%{transform:translateX(-184px)}.4%{transform:translateX(-552px)}55.6%{transform:translateX(-736px)}55.9%{transform:translateX(-920px)}56%{transform:translateX(-1012px)}to{transform:translateX(-1196px)}}.a{fill:#282d35}.f{fill:#b9c0cb;white-space:pre}</style><g font-family="Monaco,Consolas,Menlo,'Bitstream Vera Sans Mono','Powerline Symbols',monospace" font-size="1.67"><defs><symbol id="1"><text y="1.67" class="f">root@vm:/home/user/failsafe#</text><text x="29.058" y="1.67" class="f">export</text><text x="36.072" y="1.67" class="f">PS1=&apos;$</text><text x="43.086" y="1.67" class="f">&apos;;</text><text x="46.092" y="1.67" class="f">cd</text><text x="49.098" y="1.67" class="f">&quot;/tmp/failsafe-docs-home/project&quot;;</text><text x="84.168" y="1.67" class="f">clear</text></symbol><symbol id="2"><text y="1.67" class="f">$</text></symbol><symbol id="3"><text y="1.67" class="f">$</text><text x="2.004" y="1.67" class="f">failsafe</text><text x="11.022" y="1.67" class="f">explain</text><text x="19.038" y="1.67" class="f">&quot;kubectl</text><text x="28.056" y="1.67" class="f">--context</text><text x="38.076" y="1.67" class="f">arn:aws:eks:us-east-1:123456789012:cluster/prod</text><text x="86.172" y="1.67" class="f">delete</text></symbol><symbol id="4"><text x="1.002" y="1.67" class="f">ns</text><text x="4.008" y="1.67" class="f">payments&quot;</text></symbol><symbol id="5"><text y="1.67" class="f">──</text><text x="3.006" y="1.67" class="f">call</text><text x="8.016" y="1.67" class="f">1:</text><text x="11.022" y="1.67" class="f">kubectl</text><text x="19.038" y="1.67" class="f">──</text></symbol><symbol id="6"><text y="1.67" class="f">Verb:</text><text x="13.026" y="1.67" class="f">delete</text></symbol><symbol id="7"><text y="1.67" class="f">Flags:</text></symbol><symbol id="8"><text x="2.004" y="1.67" class="f">context</text><text x="18.036" y="1.67" class="f">=</text><text x="20.04" y="1.67" class="f">arn:aws:eks:us-east-1:123456789012:cluster/prod</text></symbol><symbol id="9"><text y="1.67" class="f">Positional:</text><text x="13.026" y="1.67" class="f">ns</text><text x="16.032" y="1.67" class="f">payments</text></symbol><symbol id="10"><text y="1.67" class="f">Effective</text><text x="10.02" y="1.67" class="f">cwd:</text><text x="15.03" y="1.67" class="f">/tmp/failsafe-docs-home/project</text></symbol><symbol id="11"><text y="1.67" class="f">Mode:</text><text x="13.026" y="1.67" class="f">read</text></symbol><symbol id="12"><text y="1.67" class="f">Policy</text><text x="7.014" y="1.67" class="f">chain</text><text x="13.026" y="1.67" class="f">(6</text><text x="16.032" y="1.67" class="f">modules</text><text x="24.048" y="1.67" class="f">at</text><text x="27.054" y="1.67" class="f">this</text><text x="32.064" y="1.67" class="f">cwd):</text></symbol><symbol id="13"><text x="2.004" y="1.67" class="f">[bundled]</text><text x="12.024" y="1.67" class="f">bundled/aws.rego</text></symbol><symbol id="14"><text x="2.004" y="1.67" class="f">[bundled]</text><text x="12.024" y="1.67" class="f">bundled/failsafe.rego</text></symbol><symbol id="15"><text x="2.004" y="1.67" class="f">[bundled]</text><text x="12.024" y="1.67" class="f">bundled/git.rego</text></symbol><symbol id="16"><text x="2.004" y="1.67" class="f">[bundled]</text><text x="12.024" y="1.67" class="f">bundled/helm.rego</text></symbol><symbol id="17"><text x="2.004" y="1.67" class="f">[bundled]</text><text x="12.024" y="1.67" class="f">bundled/kubectl.rego</text></symbol><symbol id="18"><text x="2.004" y="1.67" class="f">[bundled]</text><text x="12.024" y="1.67" class="f">bundled/terraform.rego</text></symbol><symbol id="19"><text y="1.67" class="f">Decision:</text><text x="10.02" y="1.67" class="f">BLOCK</text></symbol><symbol id="20"><text y="1.67" class="f">Reason</text><text x="8.016" y="1.67" class="f">:</text><text x="10.02" y="1.67" class="f">kubectl</text><text x="18.036" y="1.67" class="f">delete</text><text x="25.05" y="1.67" class="f">blocked</text><text x="33.066" y="1.67" class="f">in</text><text x="36.072" y="1.67" class="f">read</text><text x="41.082" y="1.67" class="f">mode</text></symbol><symbol id="21"><text y="1.67" class="f">$</text><text x="2.004" y="1.67" class="f">exit</text></symbol><symbol id="a"><path fill="transparent" d="M0 0h92v22H0z"/></symbol></defs><path class="a" d="M0 0h92v47.762H0z"/><g style="animation-duration:4.563005s;animation-iteration-count:infinite;animation-name:h;animation-timing-function:steps(1,end)"><svg width="1288"><svg><use xlink:href="#a"/></svg><svg x="92"><use xlink:href="#a"/></svg><svg x="184"><use xlink:href="#a"/><text y="1.67" class="f">root@vm:/home/user/failsafe#</text></svg><svg x="276"><use xlink:href="#a"/><use xlink:href="#1"/></svg><svg x="368"><use xlink:href="#a"/><use xlink:href="#1"/></svg><svg x="460"><use xlink:href="#a"/></svg><svg x="552"><use xlink:href="#a"/><use xlink:href="#2"/></svg><svg x="644"><use xlink:href="#a"/><use xlink:href="#3"/><use xlink:href="#4" y="2.171"/></svg><svg x="736"><use xlink:href="#a"/><use xlink:href="#3"/><use xlink:href="#4" y="2.171"/></svg><svg x="828"><use xlink:href="#a"/><use xlink:href="#3"/><use xlink:href="#4" y="2.171"/><use xlink:href="#5" y="4.342"/><use xlink:href="#6" y="6.513"/><use xlink:href="#7" y="8.684"/><use xlink:href="#8" y="10.855"/><use xlink:href="#9" y="13.026"/><use xlink:href="#10" y="15.197"/><use xlink:href="#11" y="17.368"/><use xlink:href="#12" y="19.539"/><use xlink:href="#13" y="21.71"/><use xlink:href="#14" y="23.881"/></svg><svg x="920"><use xlink:href="#a"/><use xlink:href="#3"/><use xlink:href="#4" y="2.171"/><use xlink:href="#5" y="4.342"/><use xlink:href="#6" y="6.513"/><use xlink:href="#7" y="8.684"/><use xlink:href="#8" y="10.855"/><use xlink:href="#9" y="13.026"/><use xlink:href="#10" y="15.197"/><use xlink:href="#11" y="17.368"/><use xlink:href="#12" y="19.539"/><use xlink:href="#13" y="21.71"/><use xlink:href="#14" y="23.881"/><use xlink:href="#15" y="26.052"/><use xlink:href="#16" y="28.223"/><use xlink:href="#17" y="30.394"/><use xlink:href="#18" y="32.565"/><use xlink:href="#19" y="34.736"/><use xlink:href="#20" y="36.907"/></svg><svg x="1012"><use xlink:href="#a"/><use xlink:href="#3"/><use xlink:href="#4" y="2.171"/><use xlink:href="#5" y="4.342"/><use xlink:href="#6" y="6.513"/><use xlink:href="#7" y="8.684"/><use xlink:href="#8" y="10.855"/><use xlink:href="#9" y="13.026"/><use xlink:href="#10" y="15.197"/><use xlink:href="#11" y="17.368"/><use xlink:href="#12" y="19.539"/><use xlink:href="#13" y="21.71"/><use xlink:href="#14" y="23.881"/><use xlink:href="#15" y="26.052"/><use xlink:href="#16" y="28.223"/><use xlink:href="#17" y="30.394"/><use xlink:href="#18" y="32.565"/><use xlink:href="#19" y="34.736"/><use xlink:href="#20" y="36.907"/><use xlink:href="#2" y="39.078"/></svg><svg x="1104"><use xlink:href="#a"/><use xlink:href="#3"/><use xlink:href="#4" y="2.171"/><use xlink:href="#5" y="4.342"/><use xlink:href="#6" y="6.513"/><use xlink:href="#7" y="8.684"/><use xlink:href="#8" y="10.855"/><use xlink:href="#9" y="13.026"/><use xlink:href="#10" y="15.197"/><use xlink:href="#11" y="17.368"/><use xlink:href="#12" y="19.539"/><use xlink:href="#13" y="21.71"/><use xlink:href="#14" y="23.881"/><use xlink:href="#15" y="26.052"/><use xlink:href="#16" y="28.223"/><use xlink:href="#17" y="30.394"/><use xlink:href="#18" y="32.565"/><use xlink:href="#19" y="34.736"/><use xlink:href="#20" y="36.907"/><use xlink:href="#21" y="39.078"/></svg><svg x="1196"><use xlink:href="#a"/><use xlink:href="#3"/><use xlink:href="#4" y="2.171"/><use xlink:href="#5" y="4.342"/><use xlink:href="#6" y="6.513"/><use xlink:href="#7" y="8.684"/><use xlink:href="#8" y="10.855"/><use xlink:href="#9" y="13.026"/><use xlink:href="#10" y="15.197"/><use xlink:href="#11" y="17.368"/><use xlink:href="#12" y="19.539"/><use xlink:href="#13" y="21.71"/><use xlink:href="#14" y="23.881"/><use xlink:href="#15" y="26.052"/><use xlink:href="#16" y="28.223"/><use xlink:href="#17" y="30.394"/><use xlink:href="#18" y="32.565"/><use xlink:href="#19" y="34.736"/><use xlink:href="#20" y="36.907"/><use xlink:href="#21" y="39.078"/><text y="42.919" class="f">exit</text></svg></svg></g></g></svg></svg>